<svg xmlns="http://www.w3.org/2000/svg" viewBox="0 0 82.6 80.49"><defs><style>.cls-1{fill:#fefefe;}.cls-2{fill:#fe5050;}.cls-3{fill:#d8d8d8;}.cls-4{fill:#fefe00;}.cls-5{fill:#f1f1f1;}.cls-6{fill:#fcfcfc;}.cls-7{fill:#2390fe;}.cls-8{fill:#fe3d3d;}.cls-9{fill:#00ca65;}.cls-10{fill:#bf0000;}.cls-11{fill:#05cd6b;}.cls-12{fill:#64daa0;}.cls-13{fill:#00c551;}.cls-14{fill:#d4e7e7;}.cls-15{fill:#d7dbdb;}.cls-16{fill:#fe3232;}.cls-17{fill:#fe3a4c;}.cls-18{fill:#d2eded;}.cls-19{fill:#fe3838;}.cls-20{fill:#e88;}.cls-21{fill:#e99e9e;}.cls-22{fill:#d4e9e9;}.cls-23{fill:#ee8c8c;}.cls-24{fill:#fe3333;}.cls-25{fill:#fe3434;}.cls-26{fill:#fe3b3b;}.cls-27{fill:#d1f0f0;}.cls-28{fill:#fe3131;}.cls-29{fill:#d5d5e7;}.cls-30{fill:#d2f0f0;}.cls-31{fill:#3398fe;}.cls-32{fill:#2491fe;}.cls-33{fill:#2391fe;}.cls-34{fill:#fef6fe;}.cls-35{fill:#00c95d;}.cls-36{fill:#11ce70;}.cls-37{fill:#e9efec;}.cls-38{fill:#fef7fe;}.cls-39{fill:#2692fe;}.cls-40{fill:#00c554;}.cls-41{fill:#00c75a;}.cls-42{fill:#00c658;}.cls-43{fill:#00c24b;}</style></defs><g id="Layer_2" data-name="Layer 2"><g id="Layer_1-2" data-name="Layer 1"><path class="cls-1" d="M40.65,5H77.49c.15,0,.18,0,.18.18V79.81c0,.15,0,.18-.18.18H3.8c-.15,0-.18,0-.18-.18q0-37.33,0-74.67c0-.15,0-.18.18-.18Z"/><path class="cls-2" d="M82.45,15.39l0,.48,0,.05c0,.51,0,1,0,1.52a4.14,4.14,0,0,0-.05.86,14.72,14.72,0,0,1-.56,2.87A20,20,0,0,1,81,23.48c0,.08,0,.17-.11.2s0,0,0,0,0,.16-.11.2a17.09,17.09,0,0,1-2.57,3.52.34.34,0,0,1-.12.12.69.69,0,0,0-.24.24.23.23,0,0,1-.12.12.42.42,0,0,0-.18.17c0,.06-.06.14-.12.2-.58.62-1.24,1.17-1.81,1.8A35.6,35.6,0,0,0,73.23,33a28.54,28.54,0,0,0-1.82,2.8,30.65,30.65,0,0,0-1.61,3.12A43.05,43.05,0,0,0,68,43.49a54.61,54.61,0,0,0-1.61,6.44c-.19,1-.33,2-.49,3-.14.79-.19,1.6-.28,2.4s-.16,1.4-.19,2.1c0,.09,0,.22-.14.21a.58.58,0,0,1,0-.29,2.57,2.57,0,0,0,.06.66l0,.09a2,2,0,0,1,0,.49c-.09.22,0,.47-.09.69a.07.07,0,0,1-.09,0,.24.24,0,0,1-.06-.09c0-.81,0-1.63,0-2.44a5.62,5.62,0,0,0,0-1.36l-.05-.07a.13.13,0,0,1,0-.08,2.17,2.17,0,0,1,0-.51s0-.06,0-.08a1,1,0,0,0,0-.6A.2.2,0,0,1,65,54c0-.19,0-.38-.07-.57a2.64,2.64,0,0,1,0-.49c-.08-1.08-.17-2.15-.31-3.23-.15-1.27-.35-2.54-.58-3.8a46.65,46.65,0,0,0-1.25-5.09,44,44,0,0,0-1.62-4.46,36.36,36.36,0,0,0-3.77-6.76c-.38-.53-.78-1.05-1.18-1.57s-1-1.25-1.58-1.87A19.05,19.05,0,0,1,53,23.91c-.32-.51-.57-1.05-.85-1.58a17.5,17.5,0,0,1-1.22-3.75c-.13-.66-.19-1.33-.27-2a1.2,1.2,0,0,1,0-.38,7.33,7.33,0,0,0,0-1.48,6.37,6.37,0,0,1,.12-1.63A15.29,15.29,0,0,1,53,7.22a14.9,14.9,0,0,1,3-3.54,1.48,1.48,0,0,0,.31-.25l.09-.07.12-.08c.07,0,.12-.12.19-.16A1.89,1.89,0,0,0,56.91,3,13.81,13.81,0,0,1,60,1.3l.64-.25c.07-.13.21-.05.31-.11l.89-.29c.07-.12.21,0,.29-.07l1.2-.25c.18-.17.41-.06.61-.1l.23,0h.07a.39.39,0,0,0,.26,0s0,0,0,0l.34,0h.08c.18.05.37,0,.55.05h0s0,0,0,0a.07.07,0,0,1,0-.06h1a.1.1,0,0,0,.06,0,2.8,2.8,0,0,0,.5,0l.08,0,.36,0,.06,0a.47.47,0,0,0,.17,0l.06,0a2.61,2.61,0,0,0,.56.08c.13-.1.24,0,.35,0A17.08,17.08,0,0,1,71,.93s.08,0,.11,0,.2,0,.23.09L73,1.71a.23.23,0,0,1,.24.12c.75.42,1.49.85,2.2,1.32a.19.19,0,0,1,.13.1l1,.79a.32.32,0,0,1,.19.17l.35.31a4,4,0,0,1,.9.9,22.55,22.55,0,0,1,1.83,2.39,16.64,16.64,0,0,1,2.31,5.79c.09.46.14.91.23,1.37a.08.08,0,0,1,0,.07.71.71,0,0,0,0,.29Z"/><path class="cls-3" d="M65.32,57.65c.09-.42.08-.86.13-1.29.15-1.65.35-3.3.61-4.94a51.5,51.5,0,0,1,1.16-5.49,43.23,43.23,0,0,1,2.62-7.33,34.45,34.45,0,0,1,3.65-6.13,30.28,30.28,0,0,1,2.92-3.37c.31-.31.64-.6,1-.9.1.09.07.2.07.31V74.38c0,.15.11.35-.12.44l-.06-.11c-.18-.1-.21-.3-.33-.45a11.38,11.38,0,0,0-.82-.88.78.78,0,0,1-.28-.41,18,18,0,0,0-1.31-1.31.48.48,0,0,1-.22-.15c-.4-.39-.8-.79-1.19-1.19a.93.93,0,0,1-.26-.39q-.6-.66-1.26-1.26a.58.58,0,0,1-.26-.18l-1.1-1.11c-.09-.09-.2-.17-.19-.32-.42-.46-.85-.89-1.31-1.31a.55.55,0,0,1-.26-.19l-1.13-1.13c-.08-.08-.2-.14-.17-.29a17.71,17.71,0,0,0-1.37-1.37,3.82,3.82,0,0,1-.78-.72c-.79-.83-1.62-1.62-2.38-2.49-.05-.06-.12-.11-.12-.19l-.13-.13a.3.3,0,0,1-.23-.23L62,58.89a.33.33,0,0,1-.24-.24l-.12-.12a.27.27,0,0,1-.18-.11c-.5-.61-1.1-1.13-1.65-1.71a.22.22,0,0,1-.08-.15c-.4-.44-.82-.86-1.25-1.25s-1.06-1-1.57-1.57a.19.19,0,0,1,0-.1,18.12,18.12,0,0,0-1.31-1.32A14.93,14.93,0,0,1,54,50.65c-.44-.48-.9-.93-1.37-1.37s-.92-.91-1.38-1.36a.22.22,0,0,1-.06-.13,17.84,17.84,0,0,0-1.37-1.38,20.51,20.51,0,0,1-1.48-1.47c-.42-.46-.86-.91-1.3-1.34-1-.94-1.86-1.94-2.82-2.88-.07-.08-.16-.15-.17-.27a1.66,1.66,0,0,1,.48-.63c1.57-1.54,3.07-3.15,4.64-4.71,1.25-1.24,2.43-2.56,3.69-3.8a.82.82,0,0,1,.32-.26,3.31,3.31,0,0,0,.65-.59c.21-.2.42-.42.63-.63a.47.47,0,0,0,.16-.27c0-.16.19-.25.3-.37l1-1.05c.08-.08.15-.19.29-.19.59.74,1.16,1.49,1.68,2.27a36.79,36.79,0,0,1,2.91,5.15A43.89,43.89,0,0,1,63.47,43a56,56,0,0,1,1.35,7.71c.08.74.12,1.48.19,2.21a.83.83,0,0,0,0,.54c.09.19,0,.4,0,.6v0a3.33,3.33,0,0,0,0,.55s0,0,0,.07v.6c.06.49,0,1,0,1.46V59a.72.72,0,0,0,0,.29h0a1.27,1.27,0,0,1,0,.64c-.14.13-.1.29-.09.44a.53.53,0,0,1,0-.28c0-.06,0-.14.13,0s0,.25,0,.4.06,0,0,0,0,0,0,0a6.86,6.86,0,0,1,0-1.11,7.55,7.55,0,0,0,0-1.26h0A.61.61,0,0,1,65.32,57.65Z"/><path class="cls-4" d="M56.23,28l-1.6,1.64a.14.14,0,0,1,0,.11c-.48.45-.91.95-1.41,1.37l-4.31,4.37-4.3,4.4c-.19.19-.36.4-.54.6a.4.4,0,0,1-.11.2l-.09.09c-1.54,1.49-3,3.08-4.52,4.58a9.57,9.57,0,0,0-.77.79c-.45.53-1,1-1.45,1.49-1.41,1.4-2.79,2.83-4.18,4.25l-3.67,3.78c-1.21,1.24-2.45,2.45-3.64,3.7-.95,1-1.94,2-2.91,3a3.11,3.11,0,0,0-.23.28c-.46.5-1,1-1.43,1.45-1.43,1.42-2.83,2.86-4.23,4.3s-2.89,3-4.33,4.44c-1,1-2,2-3,3.05s-1.94,1.94-2.88,2.94a8.17,8.17,0,0,1-1.22,1.13.55.55,0,0,1-.3.11,4.46,4.46,0,0,1-1.39.36,3.46,3.46,0,0,1-2.31-.72A3.71,3.71,0,0,1,.81,79a.2.2,0,0,1-.11-.11A3.54,3.54,0,0,1,.12,77a3.26,3.26,0,0,1,.41-1.67.71.71,0,0,1,.19-.41,6,6,0,0,1,.48-.53l5.12-5.26c.86-.87,1.74-1.72,2.58-2.61,1.06-1.14,2.2-2.21,3.27-3.35.86-.9,1.77-1.75,2.61-2.66,1.06-1.12,2.19-2.18,3.24-3.3,1.43-1.51,2.91-3,4.35-4.47,1-1,2-2,3-3s1.92-1.9,2.84-2.9,2-2,3-3.06,1.93-1.92,2.86-2.92,2-2,3-3c1.44-1.53,2.94-3,4.4-4.53,1-1,2-1.94,2.91-3s2-2,2.94-3,2-2,2.93-3c.55-.59,1.12-1.16,1.68-1.73.09-.09.17-.21.31-.22a17.48,17.48,0,0,0,2.2,3.48c.53.64,1.07,1.26,1.6,1.88Z"/><path class="cls-5" d="M.76,75l-.23.35a1,1,0,0,1-.13-.49c-.07-.09,0-.21-.06-.29V8.7c.08-.09,0-.21.06-.3A5.67,5.67,0,0,1,1.85,5.19,6.43,6.43,0,0,1,3.51,3.82,5.53,5.53,0,0,1,6,3.09a.58.58,0,0,1,.32,0h50c.11,0,.28-.1.34.11l-.2.17-.05,0-.11,0H6.84a2.57,2.57,0,0,0-.48,0l-.09,0-.08.06a.42.42,0,0,1-.33,0,.23.23,0,0,0-.24-.07s.11,0,.16,0-.1.13-.18.14A5.64,5.64,0,0,0,1.72,6,5.59,5.59,0,0,0,1,7.62.74.74,0,0,1,.78,8,4.46,4.46,0,0,0,.66,9q0,14.91,0,29.83V73.63a2.12,2.12,0,0,1-.06.71,0,0,0,0,0,0,0,.06.06,0,0,1,0-.07.07.07,0,0,1,.07,0c.13.11.08.26.09.39A1,1,0,0,1,.76,75Z"/><path class="cls-6" d="M71.88,80.2H6.31A4.78,4.78,0,0,1,5.24,80c.07-.1.17-.09.27-.1H71.94a2.32,2.32,0,0,1,.59,0c.14.1,0,.14,0,.18A1.81,1.81,0,0,1,71.88,80.2Z"/><path class="cls-1" d="M39.27,45.3c.26-.28.52-.57.79-.84,1.3-1.33,2.61-2.65,3.91-4l.07-.05a1.83,1.83,0,0,0,.13.16l2.75,2.81,2.66,2.72a2.92,2.92,0,0,1,.21.28.39.39,0,0,1-.49-.16c-.26-.33-.6-.59-.87-.92A18.54,18.54,0,0,0,47.1,44c-.4-.39-.76-.82-1.13-1.23s-.87-.85-1.31-1.27c-.17-.17-.35-.33-.5-.51s-.22-.11-.34,0c-.58.61-1.23,1.14-1.78,1.77a25.4,25.4,0,0,1-2.31,2.33c-.12.1-.08.2,0,.29a4.38,4.38,0,0,0,.29.34c.64.64,1.29,1.27,1.92,1.93a9.94,9.94,0,0,1,1.17,1.25,8.73,8.73,0,0,0,1.32,1.33,11.66,11.66,0,0,1,1.46,1.52,8.33,8.33,0,0,0,.82.86,19.84,19.84,0,0,1,2.14,2.16,1.3,1.3,0,0,0,.18.15c.91.93,1.84,1.83,2.71,2.79.59.65,1.26,1.21,1.86,1.85.86.91,1.78,1.77,2.63,2.69S58,64,58.86,65c.49.54,1,1.07,1.51,1.58s1,1,1.46,1.4a.76.76,0,0,1,.31.55c-.09,0-.17,0-.26,0l-.07,0c-.36-.41-.75-.77-1.13-1.15-1.53-1.52-3-3.08-4.53-4.62-.7-.69-1.38-1.4-2.07-2.1-1.77-1.81-3.52-3.65-5.31-5.44l-1.71-1.75c-.47-.49-1-1-1.43-1.46a1.87,1.87,0,0,0-.3-.33c-.76-.76-1.54-1.5-2.27-2.28-1-1.09-2.1-2.11-3.13-3.19A2.74,2.74,0,0,1,39.27,45.3Z"/><path class="cls-6" d="M77.31,74.82c.1-.07.06-.18.06-.27V28.44a1.93,1.93,0,0,0,0-.24l.13-.11V74.82c0,.1,0,.19-.12.18Z"/><path class="cls-7" d="M72.59,80H5.24c0-.06-.15.07-.15-.06a.39.39,0,0,1,.25-.14,1.6,1.6,0,0,0,.44,0c.17,0,.34,0,.51,0H73.41c.07,0,.13.05.13.13s-.07.1-.12.1A1.39,1.39,0,0,1,72.59,80Z"/><path class="cls-1" d="M56.72,3.17a.15.15,0,0,0-.15-.08H6C6.09,3,6.2,3,6.29,3H56.91A.33.33,0,0,1,56.72,3.17Z"/><path class="cls-1" d="M72.59,80c.28,0,.56,0,.83,0s.06-.07,0-.11-.25-.2-.38-.29a30.18,30.18,0,0,1-3.71-3.44A1.84,1.84,0,0,1,69,75.7c0-.11,0-.18-.17-.18a.26.26,0,0,1-.19-.19.15.15,0,0,0-.17-.17.26.26,0,0,1-.19-.2c0-.19-.25-.23-.2-.43.09,0,.14,0,.2.11.59.57,1.2,1.12,1.76,1.72a3.47,3.47,0,0,1,.8.94c.06.15.3.18.43.32a8.33,8.33,0,0,0,1.18,1.12,7,7,0,0,1,1.19,1c.09.1.22.18.15.33s-.17.33-.38.34a3.36,3.36,0,0,1-1.51-.17Z"/><path class="cls-1" d="M63.34,69.69a.4.4,0,0,1,.24.1c.45.47.93.9,1.35,1.39s.9.93,1.34,1.4a8.91,8.91,0,0,1,1.07,1.14,6.5,6.5,0,0,1,.48.63c0,.06,0,.07-.07.07a12.78,12.78,0,0,1-1-1c-.18-.17-.34-.35-.52-.52-.47-.48-1-1-1.43-1.44s-1-1-1.48-1.54a.21.21,0,0,1-.07-.15A.14.14,0,0,1,63.34,69.69Z"/><path class="cls-1" d="M62.51,59.37c.63.72,1.37,1.36,2,2.08.37.42.78.8,1.18,1.2l.09.12c-.13.1-.26,0-.35-.06a2.24,2.24,0,0,1-.6-.63c-.09-.18-.28-.17-.38-.31A22.87,22.87,0,0,0,62.79,60c-.12-.13-.24-.26-.35-.4S62.39,59.43,62.51,59.37Z"/><path class="cls-1" d="M59.76,56.56a22.21,22.21,0,0,1,1.91,2c-.08.14-.19.17-.28,0-.29-.37-.7-.63-1-1-.19-.2-.4-.38-.58-.59S59.51,56.73,59.76,56.56Z"/><path class="cls-1" d="M56.89,53.64a15,15,0,0,1,1.62,1.67c-.21.11-.35,0-.47-.15-.38-.35-.75-.72-1.1-1.1C56.85,54,56.62,53.81,56.89,53.64Z"/><path class="cls-1" d="M54,50.65a15.88,15.88,0,0,1,1.61,1.67c-.19.11-.33,0-.45-.12-.38-.36-.75-.74-1.12-1.12A.32.32,0,0,1,54,50.65Z"/><path class="cls-1" d="M51.16,47.79l1.38,1.36a.39.39,0,0,1,.06.13c-.17.11-.31,0-.43-.09-.33-.33-.66-.65-1-1C51.08,48.09,50.93,47.94,51.16,47.79Z"/><path class="cls-1" d="M72.84,69.93l1.67,1.73c-.26.16-.39-.08-.52-.2a14.09,14.09,0,0,1-1.14-1.18A.27.27,0,0,1,72.84,69.93Z"/><path class="cls-1" d="M70,67.06c.4.49.88.9,1.32,1.35.08.09.15.18.23.26-.17.12-.3,0-.42-.08-.37-.37-.75-.74-1.11-1.12C70,67.36,69.79,67.21,70,67.06Z"/><path class="cls-1" d="M67.16,64.14l1.34,1.37.22.24c-.26.16-.39-.08-.52-.2-.37-.33-.71-.69-1-1C67.06,64.4,67,64.26,67.16,64.14Z"/><path class="cls-1" d="M75.82,73c.34.43.78.77,1.12,1.21a3.07,3.07,0,0,1,.31.53.2.2,0,0,1-.3-.08c-.18-.5-.65-.75-1-1.12a.63.63,0,0,1-.23-.42S75.79,73,75.82,73Z"/><path class="cls-6" d="M63.34,69.69l-.06.13c-.09,0-.15,0-.21-.09L62,68.65c-.06-.06-.12-.12-.09-.21s.17,0,.24.06a.69.69,0,0,1,.24.24.34.34,0,0,0,.12.12,1.5,1.5,0,0,1,.36.35.18.18,0,0,0,.12.12.91.91,0,0,1,.24.24A.18.18,0,0,0,63.34,69.69Z"/><path class="cls-1" d="M78,5.42a9.56,9.56,0,0,1-.9-.9c.05,0,.1,0,.14,0l.77.77S78,5.37,78,5.42Z"/><path class="cls-6" d="M82.47,15.87a6.12,6.12,0,0,1,0,1.6l0,0c0-.52,0-1.05,0-1.57Z"/><path class="cls-6" d="M67.77,74.41l0-.06.24.18c0,.16.32.19.23.42A.72.72,0,0,1,67.77,74.41Z"/><path class="cls-6" d="M82.57,17.39V16h0v1.4Z"/><path class="cls-1" d="M62.15,59a.63.63,0,0,1,.23.23c-.07.14-.17.16-.28,0S62,59.08,62.15,59Z"/><path class="cls-1" d="M61.79,58.65a.69.69,0,0,1,.24.24c-.08.14-.17.15-.29,0S61.65,58.72,61.79,58.65Z"/><path class="cls-8" d="M82.38,18.3a1.24,1.24,0,0,1,0-.83h0s0,0,0,0l0,.52c0,.1,0,.21,0,.32Z"/><path class="cls-1" d="M63.89.23a3.23,3.23,0,0,1-.61.1c0-.18.12-.16.24-.17A1.61,1.61,0,0,1,63.89.23Z"/><path class="cls-1" d="M74,80c.07,0,.15,0,.14.08a.12.12,0,0,1-.15.11c-.07,0-.14,0-.15-.1S74,80,74,80Z"/><path class="cls-1" d="M68.65.33l-.35,0C68.44.09,68.57.07,68.65.33Z"/><path class="cls-1" d="M60.9.94a.58.58,0,0,1-.31.11c0-.05-.13-.08,0-.14S60.79.94,60.9.94Z"/><path class="cls-1" d="M66.51,0H67V0h-.52Z"/><path class="cls-1" d="M73.25,1.83A.46.46,0,0,1,73,1.71c0-.06,0-.13.11-.08S73.32,1.69,73.25,1.83Z"/><path class="cls-1" d="M64.89.16h-.06c.22-.1.44,0,.66,0,0,0,0,0,0,0A1,1,0,0,1,64.89.16Z"/><path class="cls-1" d="M66.45.14v0a2.3,2.3,0,0,1,.64,0,0,0,0,0,0,0,0A1.2,1.2,0,0,1,66.45.14Z"/><path class="cls-1" d="M77.37,75l.12-.18c.11.06.15.12.05.22S77.41,75.09,77.37,75Z"/><ellipse class="cls-6" cx="0.01" cy="76.94" rx="0.02" ry="0.38"/><path class="cls-1" d="M62.86,69.21a1.33,1.33,0,0,1-.36-.35A.48.48,0,0,1,62.86,69.21Z"/><path class="cls-1" d="M65.43,0H65V0h.48Z"/><path class="cls-1" d="M62.08.58c-.08.08-.19.06-.29.07s0-.14.07-.12Z"/><path class="cls-1" d="M76.78,4.21A.39.39,0,0,1,76.59,4C76.76,4,76.82,4,76.78,4.21Z"/><path class="cls-1" d="M62.38,68.74a.69.69,0,0,1-.24-.24A.24.24,0,0,1,62.38,68.74Z"/><path class="cls-1" d="M63.22,69.57a.56.56,0,0,1-.24-.24A.26.26,0,0,1,63.22,69.57Z"/><path class="cls-1" d="M71.33,1,71.1.94C71.17,1,71.36.72,71.33,1Z"/><path class="cls-6" d="M82.45,15.39h0a.43.43,0,0,1,0-.35l0-.06C82.49,15.1,82.43,15.25,82.45,15.39Z"/><path class="cls-6" d="M80.84,23.68l.11-.2c0,.07.09.13,0,.2S80.88,23.69,80.84,23.68Z"/><path class="cls-6" d="M80.72,23.92l.11-.2c0,.07.09.13,0,.2S80.76,23.93,80.72,23.92Z"/><path class="cls-1" d="M64.49.17l0,0a.31.31,0,0,1-.28,0l-.06,0C64.23.12,64.37.18,64.49.17Z"/><path class="cls-6" d="M82.55,15.38a.41.41,0,0,1,0-.3C82.6,15.16,82.56,15.24,82.55,15.38Z"/><path class="cls-1" d="M64.23.07a.2.2,0,0,1,.2,0A.15.15,0,0,1,64.23.07Z"/><path class="cls-1" d="M67.49.08c.1,0,.16,0,.22,0S67.59.11,67.49.08Z"/><path class="cls-1" d="M67.46.21s0,0,0,0,.2,0,.29,0l0,0C67.66.25,67.56.29,67.46.21Z"/><path class="cls-6" d="M.4,8.4c0,.1,0,.21-.06.3C.36,8.6.3,8.48.4,8.4Z"/><path class="cls-6" d="M82.4,18.31c0-.11,0-.22,0-.32C82.44,18.1,82.48,18.21,82.4,18.31Z"/><path class="cls-6" d="M78,27.56l.12-.12Q78.24,27.65,78,27.56Z"/><path class="cls-1" d="M75.58,3.25l-.13-.1s.1,0,.13,0S75.6,3.21,75.58,3.25Z"/><path class="cls-6" d="M82.55,18.07v.19C82.48,18.2,82.51,18.14,82.55,18.07Z"/><path class="cls-6" d="M.34,74.53c.1.08,0,.19.06.29C.3,74.74.36,74.63.34,74.53Z"/><path class="cls-6" d="M77.67,27.92l.12-.12Q77.88,28,77.67,27.92Z"/><path class="cls-6" d="M.7,78.89A.13.13,0,0,1,.81,79s-.08.06-.12,0S.69,78.93.7,78.89Z"/><path class="cls-6" d="M3.62,80.46c-.06,0-.12.06-.18,0S3.57,80.45,3.62,80.46Z"/><path class="cls-9" d="M.76,7.93a8.12,8.12,0,0,1,.75-1.77A5.87,5.87,0,0,1,5.64,3.42a.7.7,0,0,0,.14,0s0,0,0,0h.42l.11,0a3.85,3.85,0,0,0,.48,0H55.52a3.38,3.38,0,0,1,.45,0c.23,0,.24.07.09.27-.57.54-1.15,1.08-1.67,1.68A15.18,15.18,0,0,0,51,12.7a10.8,10.8,0,0,0-.21,2,10,10,0,0,1,0,1.55,14.77,14.77,0,0,0,.86,4.51c.19.54.41,1.06.62,1.6-1.06,1.08-2.13,2.16-3.19,3.25-.55.55-1.08,1.12-1.62,1.67l-2.58,2.61-4.5,4.6c-1,1-1.91,1.94-2.86,2.92l-5.9,6L28.7,46.34l-3,3-2.88,2.94L18.4,56.86c-1,1-1.92,2-2.88,2.94l-3,3.05L9.66,65.79,5.22,70.33c-1,1-1.93,2-2.87,2.94C1.82,73.84,1.23,74.35.76,75c-.09-.07,0-.17-.05-.26a4,4,0,0,0,0-1q0-10.57,0-21.15V9.17c0-.2,0-.4,0-.6A2,2,0,0,1,.76,7.93Z"/><path class="cls-10" d="M62,15.08a4.6,4.6,0,1,1,4.49,4.6A4.59,4.59,0,0,1,62,15.08Z"/><path class="cls-11" d="M56.06,3.7c.07-.12.11-.22-.1-.19H6.65c-.13,0-.28.06-.4,0,.08-.09.18-.08.28-.09H55.79c.2,0,.4-.06.58.09C56.27,3.54,56.2,3.66,56.06,3.7Z"/><path class="cls-12" d="M6.19,3.38a.06.06,0,0,0,0,0,.26.26,0,0,1,.22-.07H56a1,1,0,0,1,.5,0v0a.07.07,0,0,1-.08.05.74.74,0,0,1-.33,0H6.49a.93.93,0,0,1-.29,0Z"/><path class="cls-13" d="M6.2,3.4H56.44l-.07.06H6.25Z"/><path class="cls-14" d="M65.18,59.31c-.08-.09-.05-.21-.05-.31V56.74l0,0h0l0,0Z"/><path class="cls-15" d="M65.31,59.31v1.3h-.06V60a1.7,1.7,0,0,1,0-.71c0-.24-.06-.49.06-.73A2,2,0,0,1,65.31,59.31Z"/><path class="cls-16" d="M82.43,17.48h0a9.6,9.6,0,0,1,0-1.61A11,11,0,0,1,82.43,17.48Z"/><path class="cls-17" d="M50.75,16.22a13.37,13.37,0,0,1,0-1.55A4.48,4.48,0,0,1,50.75,16.22Z"/><path class="cls-18" d="M65.13,56.74a3.82,3.82,0,0,1,0-1.43s0,0,0,0a3.77,3.77,0,0,1,0,1.38Z"/><path class="cls-19" d="M65.19,55.37c.11.05.06.16.06.24a4.29,4.29,0,0,1-.06,1.13h0A8,8,0,0,1,65.19,55.37Z"/><path class="cls-20" d="M65.25,59.31V60c-.14.2,0,.46-.11.66a1.46,1.46,0,0,1,0-.72c.12-.21,0-.44.07-.66Z"/><path class="cls-21" d="M65.19,55.37v1.38h-.05V55.36Z"/><path class="cls-22" d="M65.31,59.31v-.73l0-.53A3.15,3.15,0,0,1,65.31,59.31Z"/><path class="cls-19" d="M65.32,57.65l0,.4a1.42,1.42,0,0,1,0-.71Z"/><path class="cls-23" d="M65.12,54.71h-.05a2.35,2.35,0,0,1,0-.65h.07a1.58,1.58,0,0,1,0,.65Z"/><path class="cls-24" d="M66.45.14a4.72,4.72,0,0,1,.65,0A.66.66,0,0,1,66.45.14Z"/><path class="cls-25" d="M64.89.16h.58A.57.57,0,0,1,64.89.16Z"/><path class="cls-26" d="M65.14,54.71c0-.22,0-.44,0-.65A.74.74,0,0,1,65.14,54.71Z"/><path class="cls-27" d="M65,53.46a.48.48,0,0,1,0-.54Z"/><path class="cls-24" d="M64.18.23h.28C64.37.35,64.27.29,64.18.23Z"/><path class="cls-28" d="M82.38,15l0,.35A.25.25,0,0,1,82.38,15Z"/><path class="cls-16" d="M67.46.21l.3,0C67.65.3,67.55.32,67.46.21Z"/><path class="cls-29" d="M53.19,31.07l1.44-1.48c.08.08,0,.12,0,.17L53.3,31.05S53.24,31.14,53.19,31.07Z"/><path class="cls-18" d="M65.13,60c0,.24,0,.48,0,.72A.9.9,0,0,1,65.13,60Z"/><path class="cls-30" d="M65.05,54.06l0,.65A1,1,0,0,1,65.05,54.06Z"/><path class="cls-31" d="M67.77,74.41a3,3,0,0,0,.52.54l.18.18a.24.24,0,0,1,.18.18l.18.17a.27.27,0,0,1,.18.19c.93,1.08,2,2,3,3,.32.32.77.48,1.07.82.11.13.24.24.36.36A.84.84,0,0,1,73,80H5.57c-.1,0-.23,0-.23-.13,1.17-1,2.16-2.13,3.23-3.2s2.32-2.35,3.47-3.52l2.88-2.94,4.46-4.56L21,64a10.81,10.81,0,0,0,1.43-1.44c0-.08.07-.12.12-.17.84-.84,1.68-1.69,2.51-2.54,1.52-1.55,3-3.11,4.57-4.66l2.93-3c1.47-1.5,2.94-3,4.42-4.51a.73.73,0,0,1,.09-.08c.5-.44,1-.93,1.42-1.41a.11.11,0,0,0,0-.08,5.38,5.38,0,0,1,.75-.76L42,48.13l3.52,3.59c.05.05.12.09.12.17a3.5,3.5,0,0,0,.64.69,5.09,5.09,0,0,0,.79.75l3.46,3.53,5.31,5.4,2.87,2.93,3,3c.06.05.13.09.13.19a17.58,17.58,0,0,0,1.49,1.5,18.3,18.3,0,0,1,1.5,1.55,14.85,14.85,0,0,0,1.43,1.43Z"/><path class="cls-32" d="M38.52,46.06c.06.08,0,.13-.05.18l-1.31,1.3s-.06.06-.09,0C37.51,47,38,46.57,38.52,46.06Z"/><path class="cls-33" d="M22.43,62.51a.22.22,0,0,1-.09.2l-1.23,1.23S21,64,21,64Z"/><path class="cls-34" d="M.76,7.93.7,8.52a1.4,1.4,0,0,1,0,.54V73.77a.86.86,0,0,1-.06.52v.35H.58V8.88a5.59,5.59,0,0,1,.13-1v0Z"/><path class="cls-35" d="M.65,9l0-.48c.1.09.06.21.06.31V74.39c0,.1,0,.22-.05.31l0-.39a1.28,1.28,0,0,1,0-.39V9.38A1.2,1.2,0,0,0,.65,9Z"/><path class="cls-36" d="M.65,9c.09.08,0,.18,0,.28V74c0,.09,0,.18,0,.27l0,0V9.38C.64,9.26.65,9.13.65,9Z"/><path class="cls-37" d="M6.19,3.27c.09-.1.21-.06.31-.06H56.22c.11,0,.22,0,.31.06a.69.69,0,0,1-.32,0H6.52A.74.74,0,0,1,6.19,3.27Z"/><path class="cls-38" d="M6.19,3.27H56.53v0H6.2Z"/><path class="cls-38" d="M5.83,3.38H5.61C5.68,3.33,5.76,3.3,5.83,3.38Z"/><path class="cls-7" d="M63.34,69.93c-.06.06-.09,0-.12,0L62,68.63c-.06-.06-.11-.11-.1-.2h0l1.38,1.38Z"/><path class="cls-32" d="M47.1,53.33c0,.07-.08,0-.11,0l-1.25-1.25a.21.21,0,0,1-.07-.18Z"/><path class="cls-6" d="M68.65,75.31l-.18-.18Q68.74,75,68.65,75.31Z"/><path class="cls-6" d="M69,75.67l-.18-.19C69,75.43,69.07,75.49,69,75.67Z"/><path class="cls-39" d="M66.27,72.91c-.06.06-.09,0-.12,0L64.86,71.6s-.09-.07,0-.12C65.33,71.94,65.81,72.41,66.27,72.91Z"/><path class="cls-1" d="M22.81,20.48c.13-.27,0-.26-.23-.26H15.24c-.27,0-.35-.06-.34-.34,0-.87,0-1.75,0-2.62,0-.21,0-.29.27-.29H25.86c.18,0,.26,0,.3.24a11.72,11.72,0,0,1-.37,5.36,9.34,9.34,0,0,1-2.61,4.19A10.54,10.54,0,0,1,17,29.65a14,14,0,0,1-2.43.11,11.36,11.36,0,0,1-6.45-2.34,11.88,11.88,0,0,1-3.26-3.79,11,11,0,0,1-1.2-3.85,13.18,13.18,0,0,1-.1-2.43,11.64,11.64,0,0,1,1-4.33A11.74,11.74,0,0,1,11.3,7a12.61,12.61,0,0,1,3.49-.62,11.47,11.47,0,0,1,6.1,1.45,8.3,8.3,0,0,1,2.48,2.09c.08.1.1.15,0,.24-.66.63-1.32,1.26-2,1.91-.15.16-.23.16-.38,0a7.29,7.29,0,0,0-3.95-2.22,4.91,4.91,0,0,0-1.32-.15,4.35,4.35,0,0,1-1,0A7.45,7.45,0,0,0,10.66,11a8.18,8.18,0,0,0-2.35,2.41,7.91,7.91,0,0,0-1.17,3.51,9.27,9.27,0,0,0,.62,4.66,8,8,0,0,0,4.05,4.12,7.71,7.71,0,0,0,2.95.72A8.09,8.09,0,0,0,19,25.63a6.41,6.41,0,0,0,3.79-4.88C22.77,20.66,22.73,20.56,22.81,20.48Z"/><path class="cls-40" d="M15,16.89H26.07v0H15Z"/><path class="cls-41" d="M22.81,20.48l0,.27c-.11-.41-.11-.41-.57-.41H15c.06-.1.14-.06.2-.06h7.31C22.64,20.28,22.81,20.25,22.81,20.48Z"/><path class="cls-42" d="M14.81,20.14V17.06h0v3.09Z"/><path class="cls-43" d="M14.73,9.66a4.35,4.35,0,0,1,1,0A2,2,0,0,1,14.73,9.66Z"/></g></g></svg>