<svg xmlns="http://www.w3.org/2000/svg" viewBox="0 0 163.43 155.68"><defs><style>.cls-1{fill:#774abb;}</style></defs><g id="Layer_2" data-name="Layer 2"><g id="Layer_1-2" data-name="Layer 1"><path class="cls-1" d="M124.58,49.94c-7.62-.77-11.15-2.85-12.2-9.6-.9-5.71-3.79-11.39-6.9-16.4C94,5.37,68.68,4.05,54.71,21A55.26,55.26,0,0,0,42.46,51.61C41.05,67,43.33,81.78,50.38,95.7c1.57,3.09,3.11,5.22,7.18,5.68,5.53.63,8.59,4.68,8.94,9.79.39,5.65-2,9.6-6.83,11.47-4.52,1.73-10.05.67-12.43-3.48-1.6-2.78-1.61-6.51-2.22-9.83-.46-2.45-.13-5.25-1.21-7.35C36.88,88.42,32.61,74.11,33.06,58.9c.46-15.51,4.09-30.29,14.38-42.66C67.71-8.13,101.52-4.62,115.7,23.76,119.62,31.62,121.46,40.53,124.58,49.94Z"/><path class="cls-1" d="M23.09,74.58C25.88,80,25.76,83.81,21,88.26,10.58,98.05,5.2,110.18,9.48,124.73S27.4,148,43.7,146.53c25.4-2.3,44.53-15.15,58.47-36.23,1.9-2.87,1.74-5,.12-8.13a10.73,10.73,0,0,1,5.23-14.68,11.09,11.09,0,0,1,14.78,5.42c2.69,5.81.1,12-5.76,15.08a14.19,14.19,0,0,0-5.45,5.09C95.26,139.83,72,155.05,40.87,155c-35.3,0-47.31-29.68-37.66-55.8A52.24,52.24,0,0,1,23.09,74.58Z"/><path class="cls-1" d="M94.27,149.9c4.1-5.19,8-6.82,14.66-5a50.86,50.86,0,0,0,23,.79c17.21-3.67,26.71-21.46,21.28-38.19-6.61-20.38-21.95-32.11-41.19-39-7.84-2.81-16.44-3.59-24.73-5-3.42-.61-6.2.37-8.6,3.54-3.78,5-10.89,5.26-15.52,1.25a11.24,11.24,0,0,1-1-16c4.05-4.4,11.52-5,15.59-.45,2.8,3.11,5.87,3,9.35,3.15,25.7.93,47.59,10.1,64.12,30.33,9,11,13.87,23.65,11.66,37.94-2.74,17.74-15.14,26.74-31.31,30.94C119,157.36,106.56,155.41,94.27,149.9Z"/></g></g></svg>